<svg width="512" height="512" viewBox="0 0 512 512" fill="none" xmlns="http://www.w3.org/2000/svg">
  <defs>
    <linearGradient id="logo-gradient" x1="0" y1="0" x2="512" y2="512" gradientUnits="userSpaceOnUse">
      <stop stop-color="#2563eb"/>
      <stop offset="0.5" stop-color="#3b82f6"/>
      <stop offset="1" stop-color="#4f46e5"/>
    </linearGradient>
  </defs>
  <rect width="512" height="512" rx="128" fill="url(#logo-gradient)"/>
  <g transform="scale(12) translate(5.3, 5.3)" stroke="white" stroke-width="2.5" stroke-linecap="round" stroke-linejoin="round">
    <path d="M 20 12 C 20 9.79 18.21 8 16 8 H 13 C 10.79 8 9 9.79 9 12 C 9 14.21 10.79 16 13 16 H 16 C 18.21 16 20 17.79 20 20 C 20 22.21 18.21 24 16 24 H 13 C 10.79 24 9 22.21 9 20" fill="none"/>
    <path d="M 14 8 H 17 C 21.418 8 25 11.582 25 16 C 25 20.418 21.418 24 17 24 H 14" fill="none"/>
    <circle cx="25" cy="8" r="1.5" fill="white" stroke="none"/>
  </g>
</svg>
